# xmcd
#
# Track frame offsets:
#	151
#	16169
#	30958
#	48914
#	68406
#	90667
#	108484
#	121598
#	133760
#	151257
#	167936
#	191811
#	206666
#	218543
#	239371
#	259170
#	269315
#	284401
#	298832
#	310764
#
# Disc length: 4323 seconds
#
# Revision: 1
# Processed by: cddbd v1.5.2PL0 Copyright (c) Steve Scherf et al.
# Submitted via: audiograbber 1.83.01
#
DISCID=1910e114
DTITLE=International Country Music ASS - Radio Release Vol 01
DYEAR=2001
DGENRE=Country
TTITLE0=I Just Had You On My Mind -Sister June Williams
TTITLE1=Best Texas Grocery -Penny Jo Pullus
TTITLE2=Country Unity  -Krerrigan Laboy
TTITLE3=Are You My Angel -Di Anne
TTITLE4=Spirrit Of The Vind -Storm Seymour
TTITLE5=A Face In The Crowd -Candace Asher
TTITLE6=He Was Always There -Carolyn Daniels
TTITLE7=Definte Maybe -Bethany Smith
TTITLE8=I Cry Alone -Tammy Harris
TTITLE9=Charlie Ray Interview -Charlie Ray
TTITLE10=The Other Side Of Eternity -Keith Bradford
TTITLE11=Wino Blues -Bob C. Smith
TTITLE12=Levels Of Love -Joanne Kramer
TTITLE13=I´ll Be With You Always -Dorothy Luck
TTITLE14=Not That Cool -Gigi Denisco
TTITLE15=She´ll Have To Go -Joy Potillo 
TTITLE16=Freight Train -Ben Krahne
TTITLE17=She Dosen´t Mind -Greg T Kerkow
TTITLE18=You Win Again -Virgil Jones
TTITLE19=Keep On Keeping On -Ginny Wicker
EXTD=
EXTT0=
EXTT1=
EXTT2=
EXTT3=
EXTT4=
EXTT5=
EXTT6=
EXTT7=
EXTT8=
EXTT9=
EXTT10=
EXTT11=
EXTT12=
EXTT13=
EXTT14=
EXTT15=
EXTT16=
EXTT17=
EXTT18=
EXTT19=
PLAYORDER=
